<mxfile host="app.diagrams.net" agent="Mozilla/5.0 (Windows NT 10.0; Win64; x64) AppleWebKit/537.36 (KHTML, like Gecko) Chrome/136.0.0.0 Safari/537.36" version="27.0.6">
  <diagram name="Page-1" id="8EAtuuFN8qFxOkvctxhg">
    <mxGraphModel dx="1095" dy="2736" grid="1" gridSize="10" guides="1" tooltips="1" connect="1" arrows="1" fold="1" page="1" pageScale="1" pageWidth="827" pageHeight="1169" math="0" shadow="0">
      <root>
        <mxCell id="0" />
        <mxCell id="1" parent="0" />
        <mxCell id="6KfqUc2jtIFRs5x4OwVa-1" value="&lt;b&gt;&amp;lt;&amp;lt;Web service&amp;gt;&amp;gt;&lt;/b&gt;" style="verticalAlign=top;align=center;shape=cube;size=10;direction=south;fontStyle=0;html=1;boundedLbl=1;spacingLeft=5;whiteSpace=wrap;" parent="1" vertex="1">
          <mxGeometry x="900" y="144" width="1520" height="970" as="geometry" />
        </mxCell>
        <mxCell id="6KfqUc2jtIFRs5x4OwVa-2" value="&lt;p style=&quot;margin:0px;margin-top:6px;text-align:center;&quot;&gt;&lt;b&gt;Scheduling system&lt;/b&gt;&lt;/p&gt;" style="align=left;overflow=fill;html=1;dropTarget=0;whiteSpace=wrap;" parent="1" vertex="1">
          <mxGeometry x="1060" y="680" width="618" height="380" as="geometry" />
        </mxCell>
        <mxCell id="6KfqUc2jtIFRs5x4OwVa-3" value="" style="shape=component;jettyWidth=8;jettyHeight=4;" parent="6KfqUc2jtIFRs5x4OwVa-2" vertex="1">
          <mxGeometry x="1" width="20" height="20" relative="1" as="geometry">
            <mxPoint x="-24" y="4" as="offset" />
          </mxGeometry>
        </mxCell>
        <mxCell id="6KfqUc2jtIFRs5x4OwVa-4" value="&lt;b&gt;Crop Rotation system&lt;/b&gt;" style="align=center;overflow=fill;html=1;dropTarget=0;whiteSpace=wrap;" parent="1" vertex="1">
          <mxGeometry x="1737" y="690" width="618" height="330" as="geometry" />
        </mxCell>
        <mxCell id="6KfqUc2jtIFRs5x4OwVa-5" value="" style="shape=component;jettyWidth=8;jettyHeight=4;" parent="6KfqUc2jtIFRs5x4OwVa-4" vertex="1">
          <mxGeometry x="1" width="20" height="20" relative="1" as="geometry">
            <mxPoint x="-24" y="4" as="offset" />
          </mxGeometry>
        </mxCell>
        <mxCell id="6KfqUc2jtIFRs5x4OwVa-6" value="&lt;p style=&quot;margin:0px;margin-top:6px;text-align:center;&quot;&gt;&lt;b&gt;Inventory manager&lt;/b&gt;&lt;/p&gt;&lt;p style=&quot;margin:0px;margin-left:8px;&quot;&gt;&lt;br&gt;&lt;/p&gt;" style="align=left;overflow=fill;html=1;dropTarget=0;whiteSpace=wrap;" parent="1" vertex="1">
          <mxGeometry x="1760" y="210" width="570" height="420" as="geometry" />
        </mxCell>
        <mxCell id="6KfqUc2jtIFRs5x4OwVa-7" value="" style="shape=component;jettyWidth=8;jettyHeight=4;" parent="6KfqUc2jtIFRs5x4OwVa-6" vertex="1">
          <mxGeometry x="1" width="20" height="20" relative="1" as="geometry">
            <mxPoint x="-24" y="4" as="offset" />
          </mxGeometry>
        </mxCell>
        <mxCell id="6KfqUc2jtIFRs5x4OwVa-8" value="&lt;p style=&quot;margin:0px;margin-top:6px;text-align:center;&quot;&gt;&lt;b&gt;Accoount management system&lt;/b&gt;&lt;/p&gt;" style="align=left;overflow=fill;html=1;dropTarget=0;whiteSpace=wrap;" parent="1" vertex="1">
          <mxGeometry x="1060" y="230" width="600" height="410" as="geometry" />
        </mxCell>
        <mxCell id="6KfqUc2jtIFRs5x4OwVa-9" value="" style="shape=component;jettyWidth=8;jettyHeight=4;" parent="6KfqUc2jtIFRs5x4OwVa-8" vertex="1">
          <mxGeometry x="1" width="20" height="20" relative="1" as="geometry">
            <mxPoint x="-24" y="4" as="offset" />
          </mxGeometry>
        </mxCell>
        <mxCell id="6KfqUc2jtIFRs5x4OwVa-10" value="" style="verticalAlign=top;align=left;spacingTop=8;spacingLeft=2;spacingRight=12;shape=cube;size=10;direction=south;fontStyle=4;html=1;whiteSpace=wrap;" parent="1" vertex="1">
          <mxGeometry x="2740" y="790" width="970" height="555" as="geometry" />
        </mxCell>
        <mxCell id="6KfqUc2jtIFRs5x4OwVa-12" value="" style="verticalAlign=top;align=left;shape=cube;size=10;direction=south;fontStyle=0;html=1;boundedLbl=1;spacingLeft=5;whiteSpace=wrap;" parent="1" vertex="1">
          <mxGeometry x="2150" y="1464" width="1045" height="580" as="geometry" />
        </mxCell>
        <mxCell id="6KfqUc2jtIFRs5x4OwVa-13" value="&amp;lt;&amp;lt;Operating System&amp;gt;&amp;gt;&lt;div&gt;Android&lt;/div&gt;" style="verticalAlign=top;align=center;shape=cube;size=10;direction=south;html=1;boundedLbl=1;spacingLeft=5;whiteSpace=wrap;" parent="6KfqUc2jtIFRs5x4OwVa-12" vertex="1">
          <mxGeometry width="980" height="490" relative="1" as="geometry">
            <mxPoint x="30" y="70" as="offset" />
          </mxGeometry>
        </mxCell>
        <mxCell id="6KfqUc2jtIFRs5x4OwVa-14" value="&amp;lt;&amp;lt;Device&amp;gt;&amp;gt;&lt;div&gt;Worker&lt;/div&gt;" style="text;html=1;align=center;verticalAlign=middle;resizable=0;points=[];autosize=1;strokeColor=none;fillColor=none;" parent="6KfqUc2jtIFRs5x4OwVa-12" vertex="1">
          <mxGeometry x="477.5002993558166" y="24.166666666666668" width="90" height="40" as="geometry" />
        </mxCell>
        <mxCell id="OrcsEcIXb9L-_ybgIJPj-8" value="&lt;span style=&quot;white-space: pre;&quot;&gt;&#x9;&lt;/span&gt;&lt;span style=&quot;white-space: pre;&quot;&gt;&#x9;&lt;/span&gt;&lt;span style=&quot;white-space: pre;&quot;&gt;&#x9;&lt;/span&gt;&lt;span style=&quot;white-space: pre;&quot;&gt;&#x9;&lt;/span&gt;&lt;span style=&quot;white-space: pre;&quot;&gt;&#x9;&lt;/span&gt;&lt;span style=&quot;white-space: pre;&quot;&gt;&#x9;&lt;/span&gt;&lt;span style=&quot;white-space: pre;&quot;&gt;&#x9;&lt;/span&gt;&lt;span style=&quot;white-space: pre;&quot;&gt;&#x9;&lt;/span&gt;&lt;span style=&quot;white-space: pre;&quot;&gt;&#x9;&lt;/span&gt;&lt;span style=&quot;white-space: pre;&quot;&gt;&#x9;&lt;/span&gt;&lt;span style=&quot;white-space: pre;&quot;&gt;&#x9;&lt;/span&gt;&lt;span style=&quot;white-space: pre;&quot;&gt;&#x9;&lt;/span&gt;&lt;span style=&quot;white-space: pre;&quot;&gt;&#x9;&lt;/span&gt;&lt;span style=&quot;white-space: pre;&quot;&gt;&#x9;&lt;/span&gt;&lt;span style=&quot;white-space: pre;&quot;&gt;&#x9;&lt;/span&gt;&lt;span style=&quot;white-space: pre;&quot;&gt;&#x9;&lt;/span&gt;&amp;lt;&amp;lt;web browser&amp;gt;&amp;gt;" style="verticalAlign=top;align=left;spacingTop=8;spacingLeft=2;spacingRight=12;shape=cube;size=10;direction=south;fontStyle=4;html=1;whiteSpace=wrap;" vertex="1" parent="6KfqUc2jtIFRs5x4OwVa-12">
          <mxGeometry x="60" y="130" width="900" height="410" as="geometry" />
        </mxCell>
        <mxCell id="OrcsEcIXb9L-_ybgIJPj-9" value="&amp;lt;&amp;lt;artifact&amp;gt;&amp;gt;&lt;br&gt;&lt;br&gt;&lt;b&gt;User Managem,ent Subsystem&lt;/b&gt;" style="html=1;align=center;verticalAlign=middle;dashed=0;whiteSpace=wrap;" vertex="1" parent="6KfqUc2jtIFRs5x4OwVa-12">
          <mxGeometry x="110" y="180" width="250" height="110" as="geometry" />
        </mxCell>
        <mxCell id="OrcsEcIXb9L-_ybgIJPj-11" value="&amp;lt;&amp;lt;artifact&amp;gt;&amp;gt;&lt;br&gt;&lt;br&gt;&lt;b&gt;Harvestation Subsystem&lt;/b&gt;" style="html=1;align=center;verticalAlign=middle;dashed=0;whiteSpace=wrap;" vertex="1" parent="6KfqUc2jtIFRs5x4OwVa-12">
          <mxGeometry x="660" y="160" width="250" height="110" as="geometry" />
        </mxCell>
        <mxCell id="OrcsEcIXb9L-_ybgIJPj-10" value="&amp;lt;&amp;lt;artifact&amp;gt;&amp;gt;&lt;br&gt;&lt;br&gt;&lt;b&gt;PreGestation Subsystem&lt;/b&gt;" style="html=1;align=center;verticalAlign=middle;dashed=0;whiteSpace=wrap;" vertex="1" parent="6KfqUc2jtIFRs5x4OwVa-12">
          <mxGeometry x="385" y="280" width="250" height="110" as="geometry" />
        </mxCell>
        <mxCell id="OrcsEcIXb9L-_ybgIJPj-13" value="&amp;lt;&amp;lt;artifact&amp;gt;&amp;gt;&lt;br&gt;&lt;br&gt;&lt;b&gt;Plant Cycle Subsystem&lt;/b&gt;" style="html=1;align=center;verticalAlign=middle;dashed=0;whiteSpace=wrap;" vertex="1" parent="6KfqUc2jtIFRs5x4OwVa-12">
          <mxGeometry x="660" y="400" width="250" height="110" as="geometry" />
        </mxCell>
        <mxCell id="OrcsEcIXb9L-_ybgIJPj-14" value="&amp;lt;&amp;lt;artifact&amp;gt;&amp;gt;&lt;br&gt;&lt;br&gt;&lt;b&gt;Scheduling Subsystem&lt;/b&gt;" style="html=1;align=center;verticalAlign=middle;dashed=0;whiteSpace=wrap;" vertex="1" parent="6KfqUc2jtIFRs5x4OwVa-12">
          <mxGeometry x="80" y="400" width="290" height="110" as="geometry" />
        </mxCell>
        <mxCell id="6KfqUc2jtIFRs5x4OwVa-32" value="" style="verticalAlign=top;align=left;shape=cube;size=10;direction=south;fontStyle=0;html=1;boundedLbl=1;spacingLeft=5;whiteSpace=wrap;" parent="1" vertex="1">
          <mxGeometry x="3180" y="-300" width="1120" height="760" as="geometry" />
        </mxCell>
        <mxCell id="6KfqUc2jtIFRs5x4OwVa-33" value="&amp;lt;&amp;lt;Operating System&amp;gt;&amp;gt;&lt;div&gt;Windows&lt;/div&gt;" style="verticalAlign=top;align=center;shape=cube;size=10;direction=south;html=1;boundedLbl=1;spacingLeft=5;whiteSpace=wrap;" parent="6KfqUc2jtIFRs5x4OwVa-32" vertex="1">
          <mxGeometry width="1050" height="650" relative="1" as="geometry">
            <mxPoint x="25" y="70" as="offset" />
          </mxGeometry>
        </mxCell>
        <mxCell id="OrcsEcIXb9L-_ybgIJPj-2" value="&lt;span style=&quot;white-space: pre;&quot;&gt;&#x9;&lt;/span&gt;&lt;span style=&quot;white-space: pre;&quot;&gt;&#x9;&lt;/span&gt;&lt;span style=&quot;white-space: pre;&quot;&gt;&#x9;&lt;/span&gt;&lt;span style=&quot;white-space: pre;&quot;&gt;&#x9;&lt;/span&gt;&lt;span style=&quot;white-space: pre;&quot;&gt;&#x9;&lt;/span&gt;&lt;span style=&quot;white-space: pre;&quot;&gt;&#x9;&lt;/span&gt;&lt;span style=&quot;white-space: pre;&quot;&gt;&#x9;&lt;/span&gt;&lt;span style=&quot;white-space: pre;&quot;&gt;&#x9;&lt;/span&gt;&lt;span style=&quot;white-space: pre;&quot;&gt;&#x9;&lt;/span&gt;&lt;span style=&quot;white-space: pre;&quot;&gt;&#x9;&lt;/span&gt;&lt;span style=&quot;white-space: pre;&quot;&gt;&#x9;&lt;/span&gt;&lt;span style=&quot;white-space: pre;&quot;&gt;&#x9;&lt;/span&gt;&lt;span style=&quot;white-space: pre;&quot;&gt;&#x9;&lt;/span&gt;&lt;span style=&quot;white-space: pre;&quot;&gt;&#x9;&lt;/span&gt;&lt;span style=&quot;white-space: pre;&quot;&gt;&#x9;&lt;/span&gt;&lt;span style=&quot;white-space: pre;&quot;&gt;&#x9;&lt;/span&gt;&lt;span style=&quot;white-space: pre;&quot;&gt;&#x9;&lt;/span&gt;&amp;lt;&amp;lt;web browser&amp;gt;&amp;gt;" style="verticalAlign=top;align=left;spacingTop=8;spacingLeft=2;spacingRight=12;shape=cube;size=10;direction=south;fontStyle=4;html=1;whiteSpace=wrap;" vertex="1" parent="6KfqUc2jtIFRs5x4OwVa-32">
          <mxGeometry x="60" y="136.12" width="980" height="553.88" as="geometry" />
        </mxCell>
        <mxCell id="OrcsEcIXb9L-_ybgIJPj-1" value="&amp;lt;&amp;lt;artifact&amp;gt;&amp;gt;&lt;br&gt;&lt;br&gt;&lt;b&gt;User Managem,ent Subsystem&lt;/b&gt;" style="html=1;align=center;verticalAlign=middle;dashed=0;whiteSpace=wrap;" vertex="1" parent="6KfqUc2jtIFRs5x4OwVa-32">
          <mxGeometry x="110" y="248.06" width="250" height="110" as="geometry" />
        </mxCell>
        <mxCell id="OrcsEcIXb9L-_ybgIJPj-4" value="&amp;lt;&amp;lt;artifact&amp;gt;&amp;gt;&lt;br&gt;&lt;br&gt;&lt;b&gt;Scheduling Subsystem&lt;/b&gt;" style="html=1;align=center;verticalAlign=middle;dashed=0;whiteSpace=wrap;" vertex="1" parent="6KfqUc2jtIFRs5x4OwVa-32">
          <mxGeometry x="600" y="200" width="250" height="110" as="geometry" />
        </mxCell>
        <mxCell id="OrcsEcIXb9L-_ybgIJPj-5" value="&amp;lt;&amp;lt;artifact&amp;gt;&amp;gt;&lt;br&gt;&lt;br&gt;&lt;b&gt;Plant Cycle Subsystem&lt;/b&gt;" style="html=1;align=center;verticalAlign=middle;dashed=0;whiteSpace=wrap;" vertex="1" parent="6KfqUc2jtIFRs5x4OwVa-32">
          <mxGeometry x="620" y="358.06" width="250" height="110" as="geometry" />
        </mxCell>
        <mxCell id="OrcsEcIXb9L-_ybgIJPj-6" value="&amp;lt;&amp;lt;artifact&amp;gt;&amp;gt;&lt;br&gt;&lt;br&gt;&lt;b&gt;PreGestation Subsystem&lt;/b&gt;" style="html=1;align=center;verticalAlign=middle;dashed=0;whiteSpace=wrap;" vertex="1" parent="6KfqUc2jtIFRs5x4OwVa-32">
          <mxGeometry x="160" y="390" width="250" height="110" as="geometry" />
        </mxCell>
        <mxCell id="OrcsEcIXb9L-_ybgIJPj-7" value="&amp;lt;&amp;lt;artifact&amp;gt;&amp;gt;&lt;br&gt;&lt;br&gt;&lt;b&gt;Harvestation Subsystem&lt;/b&gt;" style="html=1;align=center;verticalAlign=middle;dashed=0;whiteSpace=wrap;" vertex="1" parent="6KfqUc2jtIFRs5x4OwVa-32">
          <mxGeometry x="320" y="540" width="250" height="110" as="geometry" />
        </mxCell>
        <mxCell id="6KfqUc2jtIFRs5x4OwVa-34" value="&amp;lt;&amp;lt;Device&amp;gt;&amp;gt;&lt;div&gt;Manager&lt;/div&gt;" style="text;html=1;align=center;" parent="6KfqUc2jtIFRs5x4OwVa-32" vertex="1">
          <mxGeometry x="20" y="10.000298507462688" width="1040" height="86.36776119402985" as="geometry" />
        </mxCell>
        <mxCell id="6KfqUc2jtIFRs5x4OwVa-49" value="Database" style="text;align=center;fontStyle=1;verticalAlign=middle;spacingLeft=3;spacingRight=3;strokeColor=none;rotatable=0;points=[[0,0.5],[1,0.5]];portConstraint=eastwest;html=1;" parent="1" vertex="1">
          <mxGeometry x="4130" y="1179.5" width="80" height="26" as="geometry" />
        </mxCell>
        <mxCell id="6KfqUc2jtIFRs5x4OwVa-50" value="&amp;lt;&amp;lt;device&amp;gt;&amp;gt;&lt;div&gt;Farm server&lt;/div&gt;" style="text;strokeColor=none;fillColor=none;align=center;verticalAlign=top;spacingLeft=4;spacingRight=4;overflow=hidden;rotatable=0;points=[[0,0.5],[1,0.5]];portConstraint=eastwest;whiteSpace=wrap;html=1;" parent="1" vertex="1">
          <mxGeometry x="3167.5" y="824" width="115" height="42" as="geometry" />
        </mxCell>
        <mxCell id="6KfqUc2jtIFRs5x4OwVa-51" value="&lt;span style=&quot;white-space: pre;&quot;&gt;&#x9;&lt;/span&gt;&lt;span style=&quot;white-space: pre;&quot;&gt;&#x9;&lt;/span&gt;&lt;span style=&quot;white-space: pre;&quot;&gt;&#x9;&lt;/span&gt;&lt;span style=&quot;white-space: pre;&quot;&gt;&#x9;&lt;/span&gt;&lt;span style=&quot;white-space: pre;&quot;&gt;&#x9;&lt;/span&gt;&lt;span style=&quot;white-space: pre;&quot;&gt;&#x9;&lt;span style=&quot;white-space: pre;&quot;&gt;&#x9;&lt;/span&gt;&lt;/span&gt;&amp;lt;&amp;lt;device&amp;gt;&amp;gt;&lt;div&gt;&lt;span style=&quot;white-space: pre;&quot;&gt;&#x9;&lt;/span&gt;&lt;span style=&quot;white-space: pre;&quot;&gt;&#x9;&lt;/span&gt;&lt;span style=&quot;white-space: pre;&quot;&gt;&#x9;&lt;/span&gt;&lt;span style=&quot;white-space: pre;&quot;&gt;&#x9;&lt;/span&gt;&lt;span style=&quot;white-space: pre;&quot;&gt;&#x9;&lt;/span&gt;&lt;span style=&quot;white-space: pre;&quot;&gt;&#x9;&lt;span style=&quot;white-space: pre;&quot;&gt;&#x9;&lt;/span&gt;&lt;/span&gt;API Server&lt;/div&gt;" style="verticalAlign=top;align=left;shape=cube;size=10;direction=south;fontStyle=0;html=1;boundedLbl=1;spacingLeft=5;whiteSpace=wrap;" parent="1" vertex="1">
          <mxGeometry x="50" y="90" width="500" height="230" as="geometry" />
        </mxCell>
        <mxCell id="6KfqUc2jtIFRs5x4OwVa-52" value="«Component»&lt;br&gt;&lt;b&gt;Record crop planted&lt;/b&gt;" style="html=1;dropTarget=0;whiteSpace=wrap;" parent="1" vertex="1">
          <mxGeometry x="1950" y="825" width="180" height="90" as="geometry" />
        </mxCell>
        <mxCell id="6KfqUc2jtIFRs5x4OwVa-53" value="" style="shape=module;jettyWidth=8;jettyHeight=4;" parent="6KfqUc2jtIFRs5x4OwVa-52" vertex="1">
          <mxGeometry x="1" width="20" height="20" relative="1" as="geometry">
            <mxPoint x="-27" y="7" as="offset" />
          </mxGeometry>
        </mxCell>
        <mxCell id="6KfqUc2jtIFRs5x4OwVa-54" value="&lt;span style=&quot;white-space: pre;&quot;&gt;&#x9;&lt;/span&gt;&lt;span style=&quot;white-space: pre;&quot;&gt;&#x9;&lt;/span&gt;&lt;span style=&quot;white-space: pre;&quot;&gt;&#x9;&lt;/span&gt;&lt;span style=&quot;white-space: pre;&quot;&gt;&#x9;&lt;/span&gt;&lt;span style=&quot;white-space: pre;&quot;&gt;&#x9;&lt;/span&gt;&lt;span style=&quot;white-space: pre;&quot;&gt;&#x9;&lt;/span&gt;&lt;span style=&quot;white-space: pre;&quot;&gt;&#x9;&lt;/span&gt;&amp;lt;&amp;lt;device&amp;gt;&amp;gt;&lt;div&gt;&lt;span style=&quot;background-color: transparent; color: light-dark(rgb(0, 0, 0), rgb(255, 255, 255));&quot;&gt;&lt;span style=&quot;white-space: pre;&quot;&gt;&#x9;&lt;/span&gt;&lt;span style=&quot;white-space: pre;&quot;&gt;&#x9;&lt;/span&gt;&lt;span style=&quot;white-space: pre;&quot;&gt;&#x9;&lt;/span&gt;&lt;span style=&quot;white-space: pre;&quot;&gt;&#x9;&lt;/span&gt;&lt;span style=&quot;white-space: pre;&quot;&gt;&#x9;&lt;/span&gt;&lt;span style=&quot;white-space: pre;&quot;&gt;&#x9;&lt;/span&gt;&lt;span style=&quot;white-space: pre;&quot;&gt;&#x9;&lt;/span&gt;Database Server&lt;/span&gt;&lt;/div&gt;" style="verticalAlign=top;align=left;shape=cube;size=10;direction=south;fontStyle=0;html=1;boundedLbl=1;spacingLeft=5;whiteSpace=wrap;" parent="1" vertex="1">
          <mxGeometry x="260" y="846.5" width="512" height="520" as="geometry" />
        </mxCell>
        <mxCell id="6KfqUc2jtIFRs5x4OwVa-55" value="«Annotation»&lt;br&gt;&lt;b&gt;API Gateway Service&lt;/b&gt;" style="html=1;dropTarget=0;whiteSpace=wrap;" parent="1" vertex="1">
          <mxGeometry x="180" y="170" width="180" height="90" as="geometry" />
        </mxCell>
        <mxCell id="6KfqUc2jtIFRs5x4OwVa-56" value="" style="shape=module;jettyWidth=8;jettyHeight=4;" parent="6KfqUc2jtIFRs5x4OwVa-55" vertex="1">
          <mxGeometry x="1" width="20" height="20" relative="1" as="geometry">
            <mxPoint x="-27" y="7" as="offset" />
          </mxGeometry>
        </mxCell>
        <mxCell id="6KfqUc2jtIFRs5x4OwVa-66" value="«Component»&lt;br&gt;&lt;b&gt;Record weed and pest found&lt;/b&gt;" style="html=1;dropTarget=0;whiteSpace=wrap;" parent="1" vertex="1">
          <mxGeometry x="2140" y="825" width="180" height="90" as="geometry" />
        </mxCell>
        <mxCell id="6KfqUc2jtIFRs5x4OwVa-67" value="" style="shape=module;jettyWidth=8;jettyHeight=4;" parent="6KfqUc2jtIFRs5x4OwVa-66" vertex="1">
          <mxGeometry x="1" width="20" height="20" relative="1" as="geometry">
            <mxPoint x="-27" y="7" as="offset" />
          </mxGeometry>
        </mxCell>
        <mxCell id="6KfqUc2jtIFRs5x4OwVa-68" value="«Component»&lt;br&gt;&lt;b&gt;Record crop health&lt;/b&gt;" style="html=1;dropTarget=0;whiteSpace=wrap;" parent="1" vertex="1">
          <mxGeometry x="1757" y="825" width="180" height="90" as="geometry" />
        </mxCell>
        <mxCell id="6KfqUc2jtIFRs5x4OwVa-69" value="" style="shape=module;jettyWidth=8;jettyHeight=4;" parent="6KfqUc2jtIFRs5x4OwVa-68" vertex="1">
          <mxGeometry x="1" width="20" height="20" relative="1" as="geometry">
            <mxPoint x="-27" y="7" as="offset" />
          </mxGeometry>
        </mxCell>
        <mxCell id="6KfqUc2jtIFRs5x4OwVa-70" value="«Component»&lt;br&gt;&lt;div&gt;Record Crop Health&lt;/div&gt;" style="html=1;dropTarget=0;whiteSpace=wrap;" parent="1" vertex="1">
          <mxGeometry x="1922" y="480" width="180" height="90" as="geometry" />
        </mxCell>
        <mxCell id="6KfqUc2jtIFRs5x4OwVa-71" value="" style="shape=module;jettyWidth=8;jettyHeight=4;" parent="6KfqUc2jtIFRs5x4OwVa-70" vertex="1">
          <mxGeometry x="1" width="20" height="20" relative="1" as="geometry">
            <mxPoint x="-27" y="7" as="offset" />
          </mxGeometry>
        </mxCell>
        <mxCell id="6KfqUc2jtIFRs5x4OwVa-72" value="«Component»&lt;br&gt;&lt;b&gt;Record crop yield&lt;/b&gt;" style="html=1;dropTarget=0;whiteSpace=wrap;" parent="1" vertex="1">
          <mxGeometry x="1912" y="280" width="180" height="90" as="geometry" />
        </mxCell>
        <mxCell id="6KfqUc2jtIFRs5x4OwVa-73" value="" style="shape=module;jettyWidth=8;jettyHeight=4;" parent="6KfqUc2jtIFRs5x4OwVa-72" vertex="1">
          <mxGeometry x="1" width="20" height="20" relative="1" as="geometry">
            <mxPoint x="-27" y="7" as="offset" />
          </mxGeometry>
        </mxCell>
        <mxCell id="6KfqUc2jtIFRs5x4OwVa-74" value="«Component»&lt;br&gt;&lt;div&gt;Authentication&lt;/div&gt;" style="html=1;dropTarget=0;whiteSpace=wrap;" parent="1" vertex="1">
          <mxGeometry x="1415" y="430" width="180" height="90" as="geometry" />
        </mxCell>
        <mxCell id="6KfqUc2jtIFRs5x4OwVa-75" value="" style="shape=module;jettyWidth=8;jettyHeight=4;" parent="6KfqUc2jtIFRs5x4OwVa-74" vertex="1">
          <mxGeometry x="1" width="20" height="20" relative="1" as="geometry">
            <mxPoint x="-27" y="7" as="offset" />
          </mxGeometry>
        </mxCell>
        <mxCell id="6KfqUc2jtIFRs5x4OwVa-76" value="«Component»&lt;br&gt;&lt;b&gt;Delete&lt;/b&gt;" style="html=1;dropTarget=0;whiteSpace=wrap;" parent="1" vertex="1">
          <mxGeometry x="1140" y="280" width="180" height="90" as="geometry" />
        </mxCell>
        <mxCell id="6KfqUc2jtIFRs5x4OwVa-77" value="" style="shape=module;jettyWidth=8;jettyHeight=4;" parent="6KfqUc2jtIFRs5x4OwVa-76" vertex="1">
          <mxGeometry x="1" width="20" height="20" relative="1" as="geometry">
            <mxPoint x="-27" y="7" as="offset" />
          </mxGeometry>
        </mxCell>
        <mxCell id="6KfqUc2jtIFRs5x4OwVa-78" value="«Component»&lt;br&gt;&lt;b&gt;Update User info&lt;/b&gt;" style="html=1;dropTarget=0;whiteSpace=wrap;" parent="1" vertex="1">
          <mxGeometry x="1140" y="404" width="180" height="90" as="geometry" />
        </mxCell>
        <mxCell id="6KfqUc2jtIFRs5x4OwVa-79" value="" style="shape=module;jettyWidth=8;jettyHeight=4;" parent="6KfqUc2jtIFRs5x4OwVa-78" vertex="1">
          <mxGeometry x="1" width="20" height="20" relative="1" as="geometry">
            <mxPoint x="-27" y="7" as="offset" />
          </mxGeometry>
        </mxCell>
        <mxCell id="6KfqUc2jtIFRs5x4OwVa-80" value="«Component»&lt;br&gt;&lt;b&gt;Login&lt;/b&gt;" style="html=1;dropTarget=0;whiteSpace=wrap;" parent="1" vertex="1">
          <mxGeometry x="1415" y="280" width="180" height="90" as="geometry" />
        </mxCell>
        <mxCell id="6KfqUc2jtIFRs5x4OwVa-81" value="" style="shape=module;jettyWidth=8;jettyHeight=4;" parent="6KfqUc2jtIFRs5x4OwVa-80" vertex="1">
          <mxGeometry x="1" width="20" height="20" relative="1" as="geometry">
            <mxPoint x="-27" y="7" as="offset" />
          </mxGeometry>
        </mxCell>
        <mxCell id="6KfqUc2jtIFRs5x4OwVa-82" value="«Component»&lt;br&gt;&lt;b&gt;Add User&lt;/b&gt;" style="html=1;dropTarget=0;whiteSpace=wrap;" parent="1" vertex="1">
          <mxGeometry x="1420" y="545" width="180" height="90" as="geometry" />
        </mxCell>
        <mxCell id="6KfqUc2jtIFRs5x4OwVa-83" value="" style="shape=module;jettyWidth=8;jettyHeight=4;" parent="6KfqUc2jtIFRs5x4OwVa-82" vertex="1">
          <mxGeometry x="1" width="20" height="20" relative="1" as="geometry">
            <mxPoint x="-27" y="7" as="offset" />
          </mxGeometry>
        </mxCell>
        <mxCell id="6KfqUc2jtIFRs5x4OwVa-87" value="«Components»&lt;br&gt;&lt;b&gt;Schedule Database&lt;/b&gt;" style="html=1;dropTarget=0;whiteSpace=wrap;" parent="1" vertex="1">
          <mxGeometry x="378" y="996.5" width="180" height="90" as="geometry" />
        </mxCell>
        <mxCell id="6KfqUc2jtIFRs5x4OwVa-88" value="" style="shape=module;jettyWidth=8;jettyHeight=4;" parent="6KfqUc2jtIFRs5x4OwVa-87" vertex="1">
          <mxGeometry x="1" width="20" height="20" relative="1" as="geometry">
            <mxPoint x="-27" y="7" as="offset" />
          </mxGeometry>
        </mxCell>
        <mxCell id="6KfqUc2jtIFRs5x4OwVa-89" value="«Component»&lt;br&gt;&lt;b&gt;User Database&lt;/b&gt;" style="html=1;dropTarget=0;whiteSpace=wrap;" parent="1" vertex="1">
          <mxGeometry x="378" y="900" width="192" height="80" as="geometry" />
        </mxCell>
        <mxCell id="6KfqUc2jtIFRs5x4OwVa-90" value="" style="shape=module;jettyWidth=8;jettyHeight=4;" parent="6KfqUc2jtIFRs5x4OwVa-89" vertex="1">
          <mxGeometry x="1" width="20" height="20" relative="1" as="geometry">
            <mxPoint x="-27" y="7" as="offset" />
          </mxGeometry>
        </mxCell>
        <mxCell id="6KfqUc2jtIFRs5x4OwVa-91" value="«Component»&lt;br&gt;&lt;b&gt;Crop Database&lt;/b&gt;" style="html=1;dropTarget=0;whiteSpace=wrap;" parent="1" vertex="1">
          <mxGeometry x="378" y="1115.5" width="180" height="90" as="geometry" />
        </mxCell>
        <mxCell id="6KfqUc2jtIFRs5x4OwVa-92" value="" style="shape=module;jettyWidth=8;jettyHeight=4;" parent="6KfqUc2jtIFRs5x4OwVa-91" vertex="1">
          <mxGeometry x="1" width="20" height="20" relative="1" as="geometry">
            <mxPoint x="-27" y="7" as="offset" />
          </mxGeometry>
        </mxCell>
        <mxCell id="6KfqUc2jtIFRs5x4OwVa-93" value="«Components»&lt;div&gt;&lt;b&gt;Inventory Database&lt;/b&gt;&lt;/div&gt;" style="html=1;dropTarget=0;whiteSpace=wrap;" parent="1" vertex="1">
          <mxGeometry x="378" y="1236.5" width="180" height="90" as="geometry" />
        </mxCell>
        <mxCell id="6KfqUc2jtIFRs5x4OwVa-94" value="" style="shape=module;jettyWidth=8;jettyHeight=4;" parent="6KfqUc2jtIFRs5x4OwVa-93" vertex="1">
          <mxGeometry x="1" width="20" height="20" relative="1" as="geometry">
            <mxPoint x="-27" y="7" as="offset" />
          </mxGeometry>
        </mxCell>
        <mxCell id="6KfqUc2jtIFRs5x4OwVa-95" value="«Component»&lt;br&gt;&lt;b&gt;Create schedule&lt;/b&gt;&lt;span style=&quot;color: rgba(0, 0, 0, 0); font-family: monospace; font-size: 0px; text-align: start; text-wrap-mode: nowrap;&quot;&gt;%3CmxGraphModel%3E%3Croot%3E%3CmxCell%20id%3D%220%22%2F%3E%3CmxCell%20id%3D%221%22%20parent%3D%220%22%2F%3E%3CmxCell%20id%3D%222%22%20value%3D%22%C2%ABComponent%C2%BB%26lt%3Bbr%26gt%3B%26lt%3Bb%26gt%3BUpdate%20User%20info%26lt%3B%2Fb%26gt%3B%22%20style%3D%22html%3D1%3BdropTarget%3D0%3BwhiteSpace%3Dwrap%3B%22%20vertex%3D%221%22%20parent%3D%221%22%3E%3CmxGeometry%20x%3D%22-800%22%20y%3D%221600%22%20width%3D%22180%22%20height%3D%2290%22%20as%3D%22geometry%22%2F%3E%3C%2FmxCell%3E%3CmxCell%20id%3D%223%22%20value%3D%22%22%20style%3D%22shape%3Dmodule%3BjettyWidth%3D8%3BjettyHeight%3D4%3B%22%20vertex%3D%221%22%20parent%3D%222%22%3E%3CmxGeometry%20x%3D%221%22%20width%3D%2220%22%20height%3D%2220%22%20relative%3D%221%22%20as%3D%22geometry%22%3E%3CmxPoint%20x%3D%22-27%22%20y%3D%227%22%20as%3D%22offset%22%2F%3E%3C%2FmxGeometry%3E%3C%2FmxCell%3E%3C%2Froot%3E%3C%2FmxGraphModel%3E&lt;/span&gt;&lt;span style=&quot;color: rgba(0, 0, 0, 0); font-family: monospace; font-size: 0px; text-align: start; text-wrap-mode: nowrap;&quot;&gt;%3CmxGraphModel%3E%3Croot%3E%3CmxCell%20id%3D%220%22%2F%3E%3CmxCell%20id%3D%221%22%20parent%3D%220%22%2F%3E%3CmxCell%20id%3D%222%22%20value%3D%22%C2%ABComponent%C2%BB%26lt%3Bbr%26gt%3B%26lt%3Bb%26gt%3BUpdate%20User%20info%26lt%3B%2Fb%26gt%3B%22%20style%3D%22html%3D1%3BdropTarget%3D0%3BwhiteSpace%3Dwrap%3B%22%20vertex%3D%221%22%20parent%3D%221%22%3E%3CmxGeometry%20x%3D%22-800%22%20y%3D%221600%22%20width%3D%22180%22%20height%3D%2290%22%20as%3D%22geometry%22%2F%3E%3C%2FmxCell%3E%3CmxCell%20id%3D%223%22%20value%3D%22%22%20style%3D%22shape%3Dmodule%3BjettyWidth%3D8%3BjettyHeight%3D4%3B%22%20vertex%3D%221%22%20parent%3D%222%22%3E%3CmxGeometry%20x%3D%221%22%20width%3D%2220%22%20height%3D%2220%22%20relative%3D%221%22%20as%3D%22geometry%22%3E%3CmxPoint%20x%3D%22-27%22%20y%3D%227%22%20as%3D%22offset%22%2F%3E%3C%2FmxGeometry%3E%3C%2FmxCell%3E%3C%2Froot%3E%3C%2FmxGraphModel%3E&lt;/span&gt;&lt;span style=&quot;color: rgba(0, 0, 0, 0); font-family: monospace; font-size: 0px; text-align: start; text-wrap-mode: nowrap;&quot;&gt;%3CmxGraphModel%3E%3Croot%3E%3CmxCell%20id%3D%220%22%2F%3E%3CmxCell%20id%3D%221%22%20parent%3D%220%22%2F%3E%3CmxCell%20id%3D%222%22%20value%3D%22%C2%ABComponent%C2%BB%26lt%3Bbr%26gt%3B%26lt%3Bb%26gt%3BUpdate%20User%20info%26lt%3B%2Fb%26gt%3B%22%20style%3D%22html%3D1%3BdropTarget%3D0%3BwhiteSpace%3Dwrap%3B%22%20vertex%3D%221%22%20parent%3D%221%22%3E%3CmxGeometry%20x%3D%22-800%22%20y%3D%221600%22%20width%3D%22180%22%20height%3D%2290%22%20as%3D%22geometry%22%2F%3E%3C%2FmxCell%3E%3CmxCell%20id%3D%223%22%20value%3D%22%22%20style%3D%22shape%3Dmodule%3BjettyWidth%3D8%3BjettyHeight%3D4%3B%22%20vertex%3D%221%22%20parent%3D%222%22%3E%3CmxGeometry%20x%3D%221%22%20width%3D%2220%22%20height%3D%2220%22%20relative%3D%221%22%20as%3D%22geometry%22%3E%3CmxPoint%20x%3D%22-27%22%20y%3D%227%22%20as%3D%22offset%22%2F%3E%3C%2FmxGeometry%3E%3C%2FmxCell%3E%3C%2Froot%3E%3C%2FmxGraphModel%3E&lt;/span&gt;" style="html=1;dropTarget=0;whiteSpace=wrap;" parent="1" vertex="1">
          <mxGeometry x="1120" y="756.5" width="180" height="90" as="geometry" />
        </mxCell>
        <mxCell id="6KfqUc2jtIFRs5x4OwVa-96" value="" style="shape=module;jettyWidth=8;jettyHeight=4;" parent="6KfqUc2jtIFRs5x4OwVa-95" vertex="1">
          <mxGeometry x="1" width="20" height="20" relative="1" as="geometry">
            <mxPoint x="-27" y="7" as="offset" />
          </mxGeometry>
        </mxCell>
        <mxCell id="6KfqUc2jtIFRs5x4OwVa-97" value="«Component»&lt;br&gt;&lt;b&gt;Update schedule&lt;/b&gt;&lt;span style=&quot;color: rgba(0, 0, 0, 0); font-family: monospace; font-size: 0px; text-align: start; text-wrap-mode: nowrap;&quot;&gt;%3CmxGraphModel%3E%3Croot%3E%3CmxCell%20id%3D%220%22%2F%3E%3CmxCell%20id%3D%221%22%20parent%3D%220%22%2F%3E%3CmxCell%20id%3D%222%22%20value%3D%22%C2%ABComponent%C2%BB%26lt%3Bbr%26gt%3B%26lt%3Bb%26gt%3BUpdate%20User%20info%26lt%3B%2Fb%26gt%3B%22%20style%3D%22html%3D1%3BdropTarget%3D0%3BwhiteSpace%3Dwrap%3B%22%20vertex%3D%221%22%20parent%3D%221%22%3E%3CmxGeometry%20x%3D%22-800%22%20y%3D%221600%22%20width%3D%22180%22%20height%3D%2290%22%20as%3D%22geometry%22%2F%3E%3C%2FmxCell%3E%3CmxCell%20id%3D%223%22%20value%3D%22%22%20style%3D%22shape%3Dmodule%3BjettyWidth%3D8%3BjettyHeight%3D4%3B%22%20vertex%3D%221%22%20parent%3D%222%22%3E%3CmxGeometry%20x%3D%221%22%20width%3D%2220%22%20height%3D%2220%22%20relative%3D%221%22%20as%3D%22geometry%22%3E%3CmxPoint%20x%3D%22-27%22%20y%3D%227%22%20as%3D%22offset%22%2F%3E%3C%2FmxGeometry%3E%3C%2FmxCell%3E%3C%2Froot%3E%3C%2FmxGraphModel%3E&lt;/span&gt;&lt;span style=&quot;color: rgba(0, 0, 0, 0); font-family: monospace; font-size: 0px; text-align: start; text-wrap-mode: nowrap;&quot;&gt;%3CmxGraphModel%3E%3Croot%3E%3CmxCell%20id%3D%220%22%2F%3E%3CmxCell%20id%3D%221%22%20parent%3D%220%22%2F%3E%3CmxCell%20id%3D%222%22%20value%3D%22%C2%ABComponent%C2%BB%26lt%3Bbr%26gt%3B%26lt%3Bb%26gt%3BUpdate%20User%20info%26lt%3B%2Fb%26gt%3B%22%20style%3D%22html%3D1%3BdropTarget%3D0%3BwhiteSpace%3Dwrap%3B%22%20vertex%3D%221%22%20parent%3D%221%22%3E%3CmxGeometry%20x%3D%22-800%22%20y%3D%221600%22%20width%3D%22180%22%20height%3D%2290%22%20as%3D%22geometry%22%2F%3E%3C%2FmxCell%3E%3CmxCell%20id%3D%223%22%20value%3D%22%22%20style%3D%22shape%3Dmodule%3BjettyWidth%3D8%3BjettyHeight%3D4%3B%22%20vertex%3D%221%22%20parent%3D%222%22%3E%3CmxGeometry%20x%3D%221%22%20width%3D%2220%22%20height%3D%2220%22%20relative%3D%221%22%20as%3D%22geometry%22%3E%3CmxPoint%20x%3D%22-27%22%20y%3D%227%22%20as%3D%22offset%22%2F%3E%3C%2FmxGeometry%3E%3C%2FmxCell%3E%3C%2Froot%3E%3C%2FmxGraphModel%3E&lt;/span&gt;&lt;span style=&quot;color: rgba(0, 0, 0, 0); font-family: monospace; font-size: 0px; text-align: start; text-wrap-mode: nowrap;&quot;&gt;%3CmxGraphModel%3E%3Croot%3E%3CmxCell%20id%3D%220%22%2F%3E%3CmxCell%20id%3D%221%22%20parent%3D%220%22%2F%3E%3CmxCell%20id%3D%222%22%20value%3D%22%C2%ABComponent%C2%BB%26lt%3Bbr%26gt%3B%26lt%3Bb%26gt%3BUpdate%20User%20info%26lt%3B%2Fb%26gt%3B%22%20style%3D%22html%3D1%3BdropTarget%3D0%3BwhiteSpace%3Dwrap%3B%22%20vertex%3D%221%22%20parent%3D%221%22%3E%3CmxGeometry%20x%3D%22-800%22%20y%3D%221600%22%20width%3D%22180%22%20height%3D%2290%22%20as%3D%22geometry%22%2F%3E%3C%2FmxCell%3E%3CmxCell%20id%3D%223%22%20value%3D%22%22%20style%3D%22shape%3Dmodule%3BjettyWidth%3D8%3BjettyHeight%3D4%3B%22%20vertex%3D%221%22%20parent%3D%222%22%3E%3CmxGeometry%20x%3D%221%22%20width%3D%2220%22%20height%3D%2220%22%20relative%3D%221%22%20as%3D%22geometry%22%3E%3CmxPoint%20x%3D%22-27%22%20y%3D%227%22%20as%3D%22offset%22%2F%3E%3C%2FmxGeometry%3E%3C%2FmxCell%3E%3C%2Froot%3E%3C%2FmxGraphModel%3E&lt;/span&gt;" style="html=1;dropTarget=0;whiteSpace=wrap;" parent="1" vertex="1">
          <mxGeometry x="1407" y="756.5" width="180" height="90" as="geometry" />
        </mxCell>
        <mxCell id="6KfqUc2jtIFRs5x4OwVa-98" value="" style="shape=module;jettyWidth=8;jettyHeight=4;" parent="6KfqUc2jtIFRs5x4OwVa-97" vertex="1">
          <mxGeometry x="1" width="20" height="20" relative="1" as="geometry">
            <mxPoint x="-27" y="7" as="offset" />
          </mxGeometry>
        </mxCell>
        <mxCell id="6KfqUc2jtIFRs5x4OwVa-99" value="«Component»&lt;br&gt;&lt;b&gt;Delete schedule&lt;/b&gt;&lt;span style=&quot;color: rgba(0, 0, 0, 0); font-family: monospace; font-size: 0px; text-align: start; text-wrap-mode: nowrap;&quot;&gt;%3CmxGraphModel%3E%3Croot%3E%3CmxCell%20id%3D%220%22%2F%3E%3CmxCell%20id%3D%221%22%20parent%3D%220%22%2F%3E%3CmxCell%20id%3D%222%22%20value%3D%22%C2%ABComponent%C2%BB%26lt%3Bbr%26gt%3B%26lt%3Bb%26gt%3BUpdate%20User%20info%26lt%3B%2Fb%26gt%3B%22%20style%3D%22html%3D1%3BdropTarget%3D0%3BwhiteSpace%3Dwrap%3B%22%20vertex%3D%221%22%20parent%3D%221%22%3E%3CmxGeometry%20x%3D%22-800%22%20y%3D%221600%22%20width%3D%22180%22%20height%3D%2290%22%20as%3D%22geometry%22%2F%3E%3C%2FmxCell%3E%3CmxCell%20id%3D%223%22%20value%3D%22%22%20style%3D%22shape%3Dmodule%3BjettyWidth%3D8%3BjettyHeight%3D4%3B%22%20vertex%3D%221%22%20parent%3D%222%22%3E%3CmxGeometry%20x%3D%221%22%20width%3D%2220%22%20height%3D%2220%22%20relative%3D%221%22%20as%3D%22geometry%22%3E%3CmxPoint%20x%3D%22-27%22%20y%3D%227%22%20as%3D%22offset%22%2F%3E%3C%2FmxGeometry%3E%3C%2FmxCell%3E%3C%2Froot%3E%3C%2FmxGraphModel%3E&lt;/span&gt;&lt;span style=&quot;color: rgba(0, 0, 0, 0); font-family: monospace; font-size: 0px; text-align: start; text-wrap-mode: nowrap;&quot;&gt;%3CmxGraphModel%3E%3Croot%3E%3CmxCell%20id%3D%220%22%2F%3E%3CmxCell%20id%3D%221%22%20parent%3D%220%22%2F%3E%3CmxCell%20id%3D%222%22%20value%3D%22%C2%ABComponent%C2%BB%26lt%3Bbr%26gt%3B%26lt%3Bb%26gt%3BUpdate%20User%20info%26lt%3B%2Fb%26gt%3B%22%20style%3D%22html%3D1%3BdropTarget%3D0%3BwhiteSpace%3Dwrap%3B%22%20vertex%3D%221%22%20parent%3D%221%22%3E%3CmxGeometry%20x%3D%22-800%22%20y%3D%221600%22%20width%3D%22180%22%20height%3D%2290%22%20as%3D%22geometry%22%2F%3E%3C%2FmxCell%3E%3CmxCell%20id%3D%223%22%20value%3D%22%22%20style%3D%22shape%3Dmodule%3BjettyWidth%3D8%3BjettyHeight%3D4%3B%22%20vertex%3D%221%22%20parent%3D%222%22%3E%3CmxGeometry%20x%3D%221%22%20width%3D%2220%22%20height%3D%2220%22%20relative%3D%221%22%20as%3D%22geometry%22%3E%3CmxPoint%20x%3D%22-27%22%20y%3D%227%22%20as%3D%22offset%22%2F%3E%3C%2FmxGeometry%3E%3C%2FmxCell%3E%3C%2Froot%3E%3C%2FmxGraphModel%3E&lt;/span&gt;&lt;span style=&quot;color: rgba(0, 0, 0, 0); font-family: monospace; font-size: 0px; text-align: start; text-wrap-mode: nowrap;&quot;&gt;%3CmxGraphModel%3E%3Croot%3E%3CmxCell%20id%3D%220%22%2F%3E%3CmxCell%20id%3D%221%22%20parent%3D%220%22%2F%3E%3CmxCell%20id%3D%222%22%20value%3D%22%C2%ABComponent%C2%BB%26lt%3Bbr%26gt%3B%26lt%3Bb%26gt%3BUpdate%20User%20info%26lt%3B%2Fb%26gt%3B%22%20style%3D%22html%3D1%3BdropTarget%3D0%3BwhiteSpace%3Dwrap%3B%22%20vertex%3D%221%22%20parent%3D%221%22%3E%3CmxGeometry%20x%3D%22-800%22%20y%3D%221600%22%20width%3D%22180%22%20height%3D%2290%22%20as%3D%22geometry%22%2F%3E%3C%2FmxCell%3E%3CmxCell%20id%3D%223%22%20value%3D%22%22%20style%3D%22shape%3Dmodule%3BjettyWidth%3D8%3BjettyHeight%3D4%3B%22%20vertex%3D%221%22%20parent%3D%222%22%3E%3CmxGeometry%20x%3D%221%22%20width%3D%2220%22%20height%3D%2220%22%20relative%3D%221%22%20as%3D%22geometry%22%3E%3CmxPoint%20x%3D%22-27%22%20y%3D%227%22%20as%3D%22offset%22%2F%3E%3C%2FmxGeometry%3E%3C%2FmxCell%3E%3C%2Froot%3E%3C%2FmxGraphModel%3E&lt;/span&gt;" style="html=1;dropTarget=0;whiteSpace=wrap;" parent="1" vertex="1">
          <mxGeometry x="1120" y="920" width="180" height="90" as="geometry" />
        </mxCell>
        <mxCell id="6KfqUc2jtIFRs5x4OwVa-100" value="" style="shape=module;jettyWidth=8;jettyHeight=4;" parent="6KfqUc2jtIFRs5x4OwVa-99" vertex="1">
          <mxGeometry x="1" width="20" height="20" relative="1" as="geometry">
            <mxPoint x="-27" y="7" as="offset" />
          </mxGeometry>
        </mxCell>
        <mxCell id="6KfqUc2jtIFRs5x4OwVa-102" value="" style="ellipse;whiteSpace=wrap;html=1;align=center;aspect=fixed;fillColor=none;strokeColor=none;resizable=0;perimeter=centerPerimeter;rotatable=0;allowArrows=0;points=[];outlineConnect=1;" parent="1" vertex="1">
          <mxGeometry x="2376" y="480" width="10" height="10" as="geometry" />
        </mxCell>
        <mxCell id="6KfqUc2jtIFRs5x4OwVa-103" value="" style="ellipse;whiteSpace=wrap;html=1;align=center;aspect=fixed;fillColor=none;strokeColor=none;resizable=0;perimeter=centerPerimeter;rotatable=0;allowArrows=0;points=[];outlineConnect=1;" parent="1" vertex="1">
          <mxGeometry x="1982" y="696.5" width="10" height="10" as="geometry" />
        </mxCell>
        <mxCell id="6KfqUc2jtIFRs5x4OwVa-104" value="" style="ellipse;whiteSpace=wrap;html=1;align=center;aspect=fixed;fillColor=none;strokeColor=none;resizable=0;perimeter=centerPerimeter;rotatable=0;allowArrows=0;points=[];outlineConnect=1;" parent="1" vertex="1">
          <mxGeometry x="1997" y="876.5" width="10" height="10" as="geometry" />
        </mxCell>
        <mxCell id="6KfqUc2jtIFRs5x4OwVa-105" value="" style="ellipse;whiteSpace=wrap;html=1;align=center;aspect=fixed;fillColor=none;strokeColor=none;resizable=0;perimeter=centerPerimeter;rotatable=0;allowArrows=0;points=[];outlineConnect=1;" parent="1" vertex="1">
          <mxGeometry x="2067" y="876.5" width="10" height="10" as="geometry" />
        </mxCell>
        <mxCell id="6KfqUc2jtIFRs5x4OwVa-108" value="" style="ellipse;whiteSpace=wrap;html=1;align=center;aspect=fixed;fillColor=none;strokeColor=none;resizable=0;perimeter=centerPerimeter;rotatable=0;allowArrows=0;points=[];outlineConnect=1;" parent="1" vertex="1">
          <mxGeometry x="2165" y="730" width="10" height="10" as="geometry" />
        </mxCell>
        <mxCell id="6KfqUc2jtIFRs5x4OwVa-113" value="" style="ellipse;whiteSpace=wrap;html=1;align=center;aspect=fixed;fillColor=none;strokeColor=none;resizable=0;perimeter=centerPerimeter;rotatable=0;allowArrows=0;points=[];outlineConnect=1;" parent="1" vertex="1">
          <mxGeometry x="2195" y="910" width="10" height="10" as="geometry" />
        </mxCell>
        <mxCell id="6KfqUc2jtIFRs5x4OwVa-114" value="" style="ellipse;whiteSpace=wrap;html=1;align=center;aspect=fixed;fillColor=none;strokeColor=none;resizable=0;perimeter=centerPerimeter;rotatable=0;allowArrows=0;points=[];outlineConnect=1;" parent="1" vertex="1">
          <mxGeometry x="2195" y="840" width="10" height="10" as="geometry" />
        </mxCell>
        <mxCell id="6KfqUc2jtIFRs5x4OwVa-115" value="" style="ellipse;whiteSpace=wrap;html=1;align=center;aspect=fixed;fillColor=none;strokeColor=none;resizable=0;perimeter=centerPerimeter;rotatable=0;allowArrows=0;points=[];outlineConnect=1;" parent="1" vertex="1">
          <mxGeometry x="2285" y="880" width="10" height="10" as="geometry" />
        </mxCell>
        <mxCell id="6KfqUc2jtIFRs5x4OwVa-116" value="" style="ellipse;whiteSpace=wrap;html=1;align=center;aspect=fixed;fillColor=none;strokeColor=none;resizable=0;perimeter=centerPerimeter;rotatable=0;allowArrows=0;points=[];outlineConnect=1;" parent="1" vertex="1">
          <mxGeometry x="2485" y="870" width="10" height="10" as="geometry" />
        </mxCell>
        <mxCell id="6KfqUc2jtIFRs5x4OwVa-132" value="" style="ellipse;whiteSpace=wrap;html=1;align=center;aspect=fixed;fillColor=none;strokeColor=none;resizable=0;perimeter=centerPerimeter;rotatable=0;allowArrows=0;points=[];outlineConnect=1;" parent="1" vertex="1">
          <mxGeometry x="190" y="930" width="10" height="10" as="geometry" />
        </mxCell>
        <mxCell id="6KfqUc2jtIFRs5x4OwVa-138" value="" style="ellipse;whiteSpace=wrap;html=1;align=center;aspect=fixed;fillColor=none;strokeColor=none;resizable=0;perimeter=centerPerimeter;rotatable=0;allowArrows=0;points=[];outlineConnect=1;" parent="1" vertex="1">
          <mxGeometry x="1500" y="404" width="10" height="10" as="geometry" />
        </mxCell>
        <mxCell id="6KfqUc2jtIFRs5x4OwVa-149" value="" style="ellipse;whiteSpace=wrap;html=1;align=center;aspect=fixed;fillColor=none;strokeColor=none;resizable=0;perimeter=centerPerimeter;rotatable=0;allowArrows=0;points=[];outlineConnect=1;" parent="1" vertex="1">
          <mxGeometry x="955" y="930" width="10" height="10" as="geometry" />
        </mxCell>
        <mxCell id="6KfqUc2jtIFRs5x4OwVa-11" value="" style="shape=cylinder3;whiteSpace=wrap;html=1;boundedLbl=1;backgroundOutline=1;size=9.473729183799492;" parent="1" vertex="1">
          <mxGeometry x="4025" y="920" width="290" height="240" as="geometry" />
        </mxCell>
        <mxCell id="OrcsEcIXb9L-_ybgIJPj-17" value="&amp;lt;&amp;lt;artifact&amp;gt;&amp;gt;&lt;br&gt;&lt;br&gt;&lt;b&gt;User_Controller&lt;/b&gt;" style="html=1;align=center;verticalAlign=middle;dashed=0;whiteSpace=wrap;" vertex="1" parent="1">
          <mxGeometry x="2880" y="1010" width="250" height="100" as="geometry" />
        </mxCell>
        <mxCell id="OrcsEcIXb9L-_ybgIJPj-18" value="&amp;lt;&amp;lt;artifact&amp;gt;&amp;gt;&lt;br&gt;&lt;br&gt;&lt;b&gt;Scheduling_Controller&lt;/b&gt;" style="html=1;align=center;verticalAlign=middle;dashed=0;whiteSpace=wrap;" vertex="1" parent="1">
          <mxGeometry x="3320" y="1100" width="250" height="110" as="geometry" />
        </mxCell>
        <mxCell id="OrcsEcIXb9L-_ybgIJPj-23" value="&lt;p style=&quot;margin:0px;margin-top:6px;text-align:center;&quot;&gt;&lt;b&gt;Component&lt;/b&gt;&lt;/p&gt;&lt;hr size=&quot;1&quot; style=&quot;border-style:solid;&quot;&gt;&lt;p style=&quot;margin:0px;margin-left:8px;&quot;&gt;&lt;span style=&quot;white-space: pre;&quot;&gt;&#x9;&lt;/span&gt;Backend Service&lt;/p&gt;" style="align=left;overflow=fill;html=1;dropTarget=0;whiteSpace=wrap;" vertex="1" parent="1">
          <mxGeometry x="3330" y="930" width="180" height="90" as="geometry" />
        </mxCell>
        <mxCell id="OrcsEcIXb9L-_ybgIJPj-24" value="" style="shape=component;jettyWidth=8;jettyHeight=4;" vertex="1" parent="OrcsEcIXb9L-_ybgIJPj-23">
          <mxGeometry x="1" width="20" height="20" relative="1" as="geometry">
            <mxPoint x="-24" y="4" as="offset" />
          </mxGeometry>
        </mxCell>
        <mxCell id="OrcsEcIXb9L-_ybgIJPj-25" value="&lt;span style=&quot;white-space: pre;&quot;&gt;&#x9;&lt;/span&gt;&lt;span style=&quot;white-space: pre;&quot;&gt;&#x9;&lt;/span&gt;&lt;span style=&quot;white-space: pre;&quot;&gt;&#x9;&lt;/span&gt;&lt;span style=&quot;white-space: pre;&quot;&gt;&#x9;&lt;/span&gt;&lt;span style=&quot;white-space: pre;&quot;&gt;&#x9;&lt;/span&gt;&lt;span style=&quot;white-space: pre;&quot;&gt;&#x9;&lt;/span&gt;&lt;span style=&quot;white-space: pre;&quot;&gt;&#x9;&lt;/span&gt;&lt;span style=&quot;white-space: pre;&quot;&gt;&#x9;&lt;span style=&quot;white-space: pre;&quot;&gt;&#x9;&lt;/span&gt;U&lt;/span&gt;ser Management Subsystem" style="verticalAlign=top;align=left;spacingTop=8;spacingLeft=2;spacingRight=12;shape=cube;size=10;direction=south;fontStyle=4;html=1;whiteSpace=wrap;" vertex="1" parent="1">
          <mxGeometry x="1370" y="-690" width="700" height="390" as="geometry" />
        </mxCell>
        <mxCell id="OrcsEcIXb9L-_ybgIJPj-27" value="&lt;p style=&quot;margin:0px;margin-top:6px;text-align:center;&quot;&gt;&lt;b&gt;Component&lt;/b&gt;&lt;/p&gt;&lt;hr size=&quot;1&quot; style=&quot;border-style:solid;&quot;&gt;&lt;p style=&quot;margin:0px;margin-left:8px;&quot;&gt;&lt;span style=&quot;white-space: pre;&quot;&gt;     U&lt;/span&gt;ser logs in&lt;/p&gt;" style="align=left;overflow=fill;html=1;dropTarget=0;whiteSpace=wrap;" vertex="1" parent="1">
          <mxGeometry x="1439" y="-630" width="113" height="60" as="geometry" />
        </mxCell>
        <mxCell id="OrcsEcIXb9L-_ybgIJPj-28" value="" style="shape=component;jettyWidth=8;jettyHeight=4;" vertex="1" parent="OrcsEcIXb9L-_ybgIJPj-27">
          <mxGeometry x="1" width="20" height="20" relative="1" as="geometry">
            <mxPoint x="-24" y="4" as="offset" />
          </mxGeometry>
        </mxCell>
        <mxCell id="OrcsEcIXb9L-_ybgIJPj-29" value="&lt;p style=&quot;margin:0px;margin-top:6px;text-align:center;&quot;&gt;&lt;b&gt;Component&lt;/b&gt;&lt;/p&gt;&lt;hr size=&quot;1&quot; style=&quot;border-style:solid;&quot;&gt;&lt;p style=&quot;margin:0px;margin-left:8px;&quot;&gt;&lt;span style=&quot;white-space: pre;&quot;&gt;&#x9;&lt;span style=&quot;white-space: pre;&quot;&gt;&#x9;&lt;/span&gt;&lt;/span&gt;Authenticate&lt;/p&gt;" style="align=left;overflow=fill;html=1;dropTarget=0;whiteSpace=wrap;" vertex="1" parent="1">
          <mxGeometry x="1822" y="-644" width="160" height="60" as="geometry" />
        </mxCell>
        <mxCell id="OrcsEcIXb9L-_ybgIJPj-30" value="" style="shape=component;jettyWidth=8;jettyHeight=4;" vertex="1" parent="OrcsEcIXb9L-_ybgIJPj-29">
          <mxGeometry x="1" width="20" height="20" relative="1" as="geometry">
            <mxPoint x="-24" y="4" as="offset" />
          </mxGeometry>
        </mxCell>
        <mxCell id="OrcsEcIXb9L-_ybgIJPj-31" value="&lt;p style=&quot;margin:0px;margin-top:6px;text-align:center;&quot;&gt;&lt;b&gt;Component&lt;/b&gt;&lt;/p&gt;&lt;hr size=&quot;1&quot; style=&quot;border-style:solid;&quot;&gt;&lt;p style=&quot;margin:0px;margin-left:8px;&quot;&gt;&lt;span style=&quot;white-space: pre;&quot;&gt;&#x9;   Update User Info&lt;/span&gt;&lt;/p&gt;" style="align=left;overflow=fill;html=1;dropTarget=0;whiteSpace=wrap;" vertex="1" parent="1">
          <mxGeometry x="1860" y="-450" width="160" height="70" as="geometry" />
        </mxCell>
        <mxCell id="OrcsEcIXb9L-_ybgIJPj-32" value="" style="shape=component;jettyWidth=8;jettyHeight=4;" vertex="1" parent="OrcsEcIXb9L-_ybgIJPj-31">
          <mxGeometry x="1" width="20" height="20" relative="1" as="geometry">
            <mxPoint x="-24" y="4" as="offset" />
          </mxGeometry>
        </mxCell>
        <mxCell id="OrcsEcIXb9L-_ybgIJPj-33" value="&lt;p style=&quot;margin:0px;margin-top:6px;text-align:center;&quot;&gt;&lt;b&gt;Component&lt;/b&gt;&lt;/p&gt;&lt;hr size=&quot;1&quot; style=&quot;border-style:solid;&quot;&gt;&lt;p style=&quot;margin:0px;margin-left:8px;&quot;&gt;&amp;nbsp; Manager registers worker&lt;/p&gt;" style="align=left;overflow=fill;html=1;dropTarget=0;whiteSpace=wrap;" vertex="1" parent="1">
          <mxGeometry x="1420" y="-490" width="160" height="60" as="geometry" />
        </mxCell>
        <mxCell id="OrcsEcIXb9L-_ybgIJPj-34" value="" style="shape=component;jettyWidth=8;jettyHeight=4;" vertex="1" parent="OrcsEcIXb9L-_ybgIJPj-33">
          <mxGeometry x="1" width="20" height="20" relative="1" as="geometry">
            <mxPoint x="-24" y="4" as="offset" />
          </mxGeometry>
        </mxCell>
        <mxCell id="OrcsEcIXb9L-_ybgIJPj-35" value="`" style="align=left;overflow=fill;html=1;dropTarget=0;whiteSpace=wrap;" vertex="1" parent="1">
          <mxGeometry x="1580" y="-410" width="150" height="60" as="geometry" />
        </mxCell>
        <mxCell id="OrcsEcIXb9L-_ybgIJPj-36" value="" style="shape=component;jettyWidth=8;jettyHeight=4;" vertex="1" parent="OrcsEcIXb9L-_ybgIJPj-35">
          <mxGeometry x="1" width="20" height="20" relative="1" as="geometry">
            <mxPoint x="-24" y="4" as="offset" />
          </mxGeometry>
        </mxCell>
        <mxCell id="OrcsEcIXb9L-_ybgIJPj-37" value="&lt;span style=&quot;white-space: pre;&quot;&gt;&#x9;&lt;/span&gt;&lt;span style=&quot;white-space: pre;&quot;&gt;&#x9;&lt;/span&gt;&lt;span style=&quot;white-space: pre;&quot;&gt;&#x9;&lt;/span&gt;&lt;span style=&quot;white-space: pre;&quot;&gt;&#x9;&lt;/span&gt;&lt;span style=&quot;white-space: pre;&quot;&gt;&#x9;&lt;/span&gt;&lt;span style=&quot;white-space: pre;&quot;&gt;&#x9;&lt;/span&gt;&lt;span style=&quot;white-space: pre;&quot;&gt;&#x9;&lt;/span&gt;&lt;span style=&quot;white-space: pre;&quot;&gt;&#x9;&lt;/span&gt;&lt;span style=&quot;white-space: pre;&quot;&gt;&#x9;&lt;/span&gt;Scheduling Subsystem" style="verticalAlign=top;align=left;spacingTop=8;spacingLeft=2;spacingRight=12;shape=cube;size=10;direction=south;fontStyle=4;html=1;whiteSpace=wrap;" vertex="1" parent="1">
          <mxGeometry x="80" y="-740" width="700" height="390" as="geometry" />
        </mxCell>
        <mxCell id="OrcsEcIXb9L-_ybgIJPj-38" value="&lt;p style=&quot;margin:0px;margin-top:6px;text-align:center;&quot;&gt;&lt;b&gt;Component&lt;/b&gt;&lt;/p&gt;&lt;hr size=&quot;1&quot; style=&quot;border-style:solid;&quot;&gt;&lt;p style=&quot;margin:0px;margin-left:8px;&quot;&gt;Manager creates a schedule&lt;/p&gt;" style="align=left;overflow=fill;html=1;dropTarget=0;whiteSpace=wrap;" vertex="1" parent="1">
          <mxGeometry x="115" y="-680" width="160" height="59" as="geometry" />
        </mxCell>
        <mxCell id="OrcsEcIXb9L-_ybgIJPj-39" value="" style="shape=component;jettyWidth=8;jettyHeight=4;" vertex="1" parent="OrcsEcIXb9L-_ybgIJPj-38">
          <mxGeometry x="1" width="20" height="20" relative="1" as="geometry">
            <mxPoint x="-24" y="4" as="offset" />
          </mxGeometry>
        </mxCell>
        <mxCell id="OrcsEcIXb9L-_ybgIJPj-40" value="&lt;p style=&quot;margin:0px;margin-top:6px;text-align:center;&quot;&gt;&lt;b&gt;Component&lt;/b&gt;&lt;/p&gt;&lt;hr size=&quot;1&quot; style=&quot;border-style:solid;&quot;&gt;&lt;p style=&quot;margin:0px;margin-left:8px;&quot;&gt;Manager updates a schedule&lt;/p&gt;" style="align=left;overflow=fill;html=1;dropTarget=0;whiteSpace=wrap;" vertex="1" parent="1">
          <mxGeometry x="130" y="-549" width="160" height="59" as="geometry" />
        </mxCell>
        <mxCell id="OrcsEcIXb9L-_ybgIJPj-41" value="" style="shape=component;jettyWidth=8;jettyHeight=4;" vertex="1" parent="OrcsEcIXb9L-_ybgIJPj-40">
          <mxGeometry x="1" width="20" height="20" relative="1" as="geometry">
            <mxPoint x="-24" y="4" as="offset" />
          </mxGeometry>
        </mxCell>
        <mxCell id="OrcsEcIXb9L-_ybgIJPj-42" value="&lt;p style=&quot;margin:0px;margin-top:6px;text-align:center;&quot;&gt;&lt;b&gt;Component&lt;/b&gt;&lt;/p&gt;&lt;hr size=&quot;1&quot; style=&quot;border-style:solid;&quot;&gt;&lt;p style=&quot;margin:0px;margin-left:8px;&quot;&gt;Manager deletes a schedule&lt;/p&gt;" style="align=left;overflow=fill;html=1;dropTarget=0;whiteSpace=wrap;" vertex="1" parent="1">
          <mxGeometry x="150" y="-460" width="160" height="59" as="geometry" />
        </mxCell>
        <mxCell id="OrcsEcIXb9L-_ybgIJPj-43" value="" style="shape=component;jettyWidth=8;jettyHeight=4;" vertex="1" parent="OrcsEcIXb9L-_ybgIJPj-42">
          <mxGeometry x="1" width="20" height="20" relative="1" as="geometry">
            <mxPoint x="-24" y="4" as="offset" />
          </mxGeometry>
        </mxCell>
        <mxCell id="OrcsEcIXb9L-_ybgIJPj-44" value="&lt;p style=&quot;margin:0px;margin-top:6px;text-align:center;&quot;&gt;&lt;b&gt;Component&lt;/b&gt;&lt;/p&gt;&lt;hr size=&quot;1&quot; style=&quot;border-style:solid;&quot;&gt;&lt;p style=&quot;margin:0px;margin-left:8px;&quot;&gt;Manager notifies users&lt;/p&gt;" style="align=left;overflow=fill;html=1;dropTarget=0;whiteSpace=wrap;" vertex="1" parent="1">
          <mxGeometry x="378" y="-600" width="140" height="59" as="geometry" />
        </mxCell>
        <mxCell id="OrcsEcIXb9L-_ybgIJPj-45" value="" style="shape=component;jettyWidth=8;jettyHeight=4;" vertex="1" parent="OrcsEcIXb9L-_ybgIJPj-44">
          <mxGeometry x="1" width="20" height="20" relative="1" as="geometry">
            <mxPoint x="-24" y="4" as="offset" />
          </mxGeometry>
        </mxCell>
        <mxCell id="OrcsEcIXb9L-_ybgIJPj-46" value="&lt;p style=&quot;margin:0px;margin-top:6px;text-align:center;&quot;&gt;&lt;b&gt;Component&lt;/b&gt;&lt;/p&gt;&lt;hr size=&quot;1&quot; style=&quot;border-style:solid;&quot;&gt;&lt;p style=&quot;margin:0px;margin-left:8px;&quot;&gt;Worker views their schedule&lt;/p&gt;" style="align=left;overflow=fill;html=1;dropTarget=0;whiteSpace=wrap;" vertex="1" parent="1">
          <mxGeometry x="580" y="-574.5" width="160" height="59" as="geometry" />
        </mxCell>
        <mxCell id="OrcsEcIXb9L-_ybgIJPj-47" value="" style="shape=component;jettyWidth=8;jettyHeight=4;" vertex="1" parent="OrcsEcIXb9L-_ybgIJPj-46">
          <mxGeometry x="1" width="20" height="20" relative="1" as="geometry">
            <mxPoint x="-24" y="4" as="offset" />
          </mxGeometry>
        </mxCell>
        <mxCell id="OrcsEcIXb9L-_ybgIJPj-48" value="&lt;p style=&quot;margin:0px;margin-top:6px;text-align:center;&quot;&gt;&lt;b&gt;Component&lt;/b&gt;&lt;/p&gt;&lt;hr size=&quot;1&quot; style=&quot;border-style:solid;&quot;&gt;&lt;p style=&quot;margin:0px;margin-left:8px;&quot;&gt;Manager logs in&lt;/p&gt;" style="align=left;overflow=fill;html=1;dropTarget=0;whiteSpace=wrap;" vertex="1" parent="1">
          <mxGeometry x="1650" y="-570" width="110" height="59" as="geometry" />
        </mxCell>
        <mxCell id="OrcsEcIXb9L-_ybgIJPj-49" value="" style="shape=component;jettyWidth=8;jettyHeight=4;" vertex="1" parent="OrcsEcIXb9L-_ybgIJPj-48">
          <mxGeometry x="1" width="20" height="20" relative="1" as="geometry">
            <mxPoint x="-24" y="4" as="offset" />
          </mxGeometry>
        </mxCell>
        <mxCell id="OrcsEcIXb9L-_ybgIJPj-50" value="&lt;span style=&quot;white-space: pre;&quot;&gt;&#x9;&lt;/span&gt;&lt;span style=&quot;white-space: pre;&quot;&gt;&#x9;&lt;/span&gt;&lt;span style=&quot;white-space: pre;&quot;&gt;&#x9;&lt;/span&gt;&lt;span style=&quot;white-space: pre;&quot;&gt;&#x9;&lt;/span&gt;&lt;span style=&quot;white-space: pre;&quot;&gt;&#x9;&lt;/span&gt;&lt;span style=&quot;white-space: pre;&quot;&gt;&#x9;&lt;/span&gt;&lt;span style=&quot;white-space: pre;&quot;&gt;&#x9;&lt;/span&gt;&lt;span style=&quot;white-space: pre;&quot;&gt;&#x9;&lt;/span&gt;&lt;span style=&quot;white-space: pre;&quot;&gt;&#x9;&lt;/span&gt;Plant Cycle Subsystem" style="verticalAlign=top;align=left;spacingTop=8;spacingLeft=2;spacingRight=12;shape=cube;size=10;direction=south;fontStyle=4;html=1;whiteSpace=wrap;" vertex="1" parent="1">
          <mxGeometry x="370" y="-1130" width="700" height="330" as="geometry" />
        </mxCell>
        <mxCell id="OrcsEcIXb9L-_ybgIJPj-53" value="&lt;p style=&quot;margin:0px;margin-top:6px;text-align:center;&quot;&gt;&lt;b&gt;Component&lt;/b&gt;&lt;/p&gt;&lt;hr size=&quot;1&quot; style=&quot;border-style:solid;&quot;&gt;&lt;p style=&quot;margin:0px;margin-left:8px;&quot;&gt;Worker records crops planted&lt;/p&gt;" style="align=left;overflow=fill;html=1;dropTarget=0;whiteSpace=wrap;" vertex="1" parent="1">
          <mxGeometry x="400" y="-1070" width="190" height="60" as="geometry" />
        </mxCell>
        <mxCell id="OrcsEcIXb9L-_ybgIJPj-54" value="" style="shape=component;jettyWidth=8;jettyHeight=4;" vertex="1" parent="OrcsEcIXb9L-_ybgIJPj-53">
          <mxGeometry x="1" width="20" height="20" relative="1" as="geometry">
            <mxPoint x="-24" y="4" as="offset" />
          </mxGeometry>
        </mxCell>
        <mxCell id="OrcsEcIXb9L-_ybgIJPj-55" value="&lt;p style=&quot;margin:0px;margin-top:6px;text-align:center;&quot;&gt;&lt;b&gt;Component&lt;/b&gt;&lt;/p&gt;&lt;hr size=&quot;1&quot; style=&quot;border-style:solid;&quot;&gt;&lt;p style=&quot;margin:0px;margin-left:8px;&quot;&gt;Worker records pests&lt;/p&gt;&lt;p style=&quot;margin:0px;margin-left:8px;&quot;&gt;&lt;br&gt;&lt;/p&gt;" style="align=left;overflow=fill;html=1;dropTarget=0;whiteSpace=wrap;" vertex="1" parent="1">
          <mxGeometry x="440" y="-970" width="140" height="59" as="geometry" />
        </mxCell>
        <mxCell id="OrcsEcIXb9L-_ybgIJPj-56" value="" style="shape=component;jettyWidth=8;jettyHeight=4;" vertex="1" parent="OrcsEcIXb9L-_ybgIJPj-55">
          <mxGeometry x="1" width="20" height="20" relative="1" as="geometry">
            <mxPoint x="-24" y="4" as="offset" />
          </mxGeometry>
        </mxCell>
        <mxCell id="OrcsEcIXb9L-_ybgIJPj-57" value="&lt;p style=&quot;margin:0px;margin-top:6px;text-align:center;&quot;&gt;&lt;b&gt;Component&lt;/b&gt;&lt;/p&gt;&lt;hr size=&quot;1&quot; style=&quot;border-style:solid;&quot;&gt;&lt;p style=&quot;margin:0px;margin-left:8px;&quot;&gt;Worker records crop health&lt;/p&gt;" style="align=left;overflow=fill;html=1;dropTarget=0;whiteSpace=wrap;" vertex="1" parent="1">
          <mxGeometry x="790" y="-1050" width="160" height="59" as="geometry" />
        </mxCell>
        <mxCell id="OrcsEcIXb9L-_ybgIJPj-58" value="" style="shape=component;jettyWidth=8;jettyHeight=4;" vertex="1" parent="OrcsEcIXb9L-_ybgIJPj-57">
          <mxGeometry x="1" width="20" height="20" relative="1" as="geometry">
            <mxPoint x="-24" y="4" as="offset" />
          </mxGeometry>
        </mxCell>
        <mxCell id="OrcsEcIXb9L-_ybgIJPj-59" value="&lt;p style=&quot;margin:0px;margin-top:6px;text-align:center;&quot;&gt;&lt;b&gt;Component&lt;/b&gt;&lt;/p&gt;&lt;hr size=&quot;1&quot; style=&quot;border-style:solid;&quot;&gt;&lt;p style=&quot;margin:0px;margin-left:8px;&quot;&gt;Worker records weeds found&lt;/p&gt;" style="align=left;overflow=fill;html=1;dropTarget=0;whiteSpace=wrap;" vertex="1" parent="1">
          <mxGeometry x="795" y="-930" width="160" height="59" as="geometry" />
        </mxCell>
        <mxCell id="OrcsEcIXb9L-_ybgIJPj-60" value="" style="shape=component;jettyWidth=8;jettyHeight=4;" vertex="1" parent="OrcsEcIXb9L-_ybgIJPj-59">
          <mxGeometry x="1" width="20" height="20" relative="1" as="geometry">
            <mxPoint x="-24" y="4" as="offset" />
          </mxGeometry>
        </mxCell>
        <mxCell id="OrcsEcIXb9L-_ybgIJPj-61" value="&lt;p style=&quot;margin:0px;margin-top:6px;text-align:center;&quot;&gt;&lt;b&gt;Component&lt;/b&gt;&lt;/p&gt;&lt;hr size=&quot;1&quot; style=&quot;border-style:solid;&quot;&gt;&lt;p style=&quot;margin:0px;margin-left:8px;&quot;&gt;Manager views records&lt;/p&gt;" style="align=left;overflow=fill;html=1;dropTarget=0;whiteSpace=wrap;" vertex="1" parent="1">
          <mxGeometry x="600" y="-900" width="150" height="59" as="geometry" />
        </mxCell>
        <mxCell id="OrcsEcIXb9L-_ybgIJPj-62" value="" style="shape=component;jettyWidth=8;jettyHeight=4;" vertex="1" parent="OrcsEcIXb9L-_ybgIJPj-61">
          <mxGeometry x="1" width="20" height="20" relative="1" as="geometry">
            <mxPoint x="-24" y="4" as="offset" />
          </mxGeometry>
        </mxCell>
        <mxCell id="OrcsEcIXb9L-_ybgIJPj-63" value="Block" style="verticalAlign=top;align=left;spacingTop=8;spacingLeft=2;spacingRight=12;shape=cube;size=10;direction=south;fontStyle=4;html=1;whiteSpace=wrap;" vertex="1" parent="1">
          <mxGeometry x="198" y="-1720" width="692" height="350" as="geometry" />
        </mxCell>
      </root>
    </mxGraphModel>
  </diagram>
</mxfile>
